# Blender v3.2.2 OBJ File: ''
# www.blender.org
mtllib map.mtl
o Plano
v -59.138321 0.000000 59.138321
v 59.138321 0.000000 59.138321
v -59.138321 0.000000 -59.138321
v 59.138321 0.000000 -59.138321
vt 0.000000 0.000000
vt 1.000000 0.000000
vt 1.000000 1.000000
vt 0.000000 1.000000
vn 0.0000 1.0000 0.0000
usemtl None
s off
f 1/1/1 2/2/1 4/3/1 3/4/1
o Cubo
v -0.304765 0.116133 0.304765
v -0.304765 1.726770 0.304765
v -0.304765 0.116133 -0.304765
v -0.304765 1.726770 -0.304765
v 0.304765 0.116133 0.304765
v 0.304765 1.726770 0.304765
v 0.304765 0.116133 -0.304765
v 0.304765 1.726770 -0.304765
v -0.472223 0.116133 -0.395717
v -0.472223 0.116133 0.395717
v -0.410130 1.775895 0.414460
v 0.410130 1.775895 0.414460
v 0.472223 0.116133 -0.395717
v 0.410130 1.997517 0.414460
v 0.472223 0.116133 0.395717
v -0.410130 1.820842 -0.471141
v -0.472223 0.000000 -0.395717
v -0.472223 0.000000 0.395717
v 0.472223 0.000000 -0.395717
v 0.472223 0.000000 0.395717
v -0.410130 1.997517 0.414460
v 0.410130 1.820842 -0.471141
v 0.410130 1.997517 -0.097268
v -0.410130 1.997517 -0.097268
v 0.472223 1.997517 -0.097268
v -0.472223 1.997517 -0.097268
v 0.472223 1.726770 -0.097268
v -0.472223 1.726770 -0.097268
v -0.472223 1.726770 0.485583
v -0.472223 1.726770 -0.471141
v 0.472223 1.726770 -0.471141
v 0.472223 1.726770 0.485583
v -0.472223 1.997517 0.485583
v -0.472223 1.820842 -0.471141
v 0.472223 1.820842 -0.471141
v 0.472223 1.997517 0.485583
v 0.410130 1.775895 -0.097268
v -0.410130 1.775895 -0.471141
v 0.410130 1.775895 -0.471141
v -0.410130 1.775895 -0.097268
vt 0.375000 0.000000
vt 0.625000 0.000000
vt 0.625000 0.250000
vt 0.375000 0.250000
vt 0.625000 0.500000
vt 0.375000 0.500000
vt 0.625000 0.750000
vt 0.375000 0.750000
vt 0.625000 1.000000
vt 0.375000 1.000000
vt 0.625000 0.500000
vt 0.875000 0.500000
vt 0.875000 0.597696
vt 0.625000 0.597696
vt 0.375000 1.000000
vt 0.375000 0.750000
vt 0.375000 1.000000
vt 0.375000 0.750000
vt 0.875000 0.731415
vt 0.625000 0.731415
vt 0.375000 0.500000
vt 0.375000 0.250000
vt 0.625000 1.000000
vt 0.625000 0.750000
vt 0.625000 0.766436
vt 0.625000 0.983564
vt 0.625000 0.597696
vt 0.625000 0.500000
vt 0.625000 0.500000
vt 0.625000 0.597696
vt 0.375000 0.000000
vt 0.625000 0.250000
vt 0.625000 0.152304
vt 0.625000 0.152304
vt 0.625000 0.250000
vt 0.125000 0.500000
vt 0.375000 0.500000
vt 0.125000 0.750000
vt 0.375000 0.250000
vt 0.375000 0.000000
vt 0.625000 0.731415
vt 0.625000 0.152304
vt 0.625000 0.250000
vt 0.625000 0.250000
vt 0.625000 0.152304
vt 0.625000 1.000000
vt 0.625000 0.543089
vt 0.625000 0.597696
vt 0.625000 0.750000
vt 0.625000 0.000000
vt 0.625000 0.000000
vt 0.625000 0.018585
vt 0.625000 0.500000
vt 0.625000 0.018585
vt 0.625000 0.766436
vt 0.625000 0.983564
vn -1.0000 0.0000 0.0000
vn 0.0000 0.0000 -1.0000
vn 1.0000 0.0000 0.0000
vn 0.0000 0.0000 1.0000
vn 0.0000 1.0000 0.0000
vn 0.0000 0.9041 -0.4273
vn 0.0000 -1.0000 0.0000
usemtl None
s off
f 5/5/2 6/6/2 8/7/2 7/8/2
f 7/8/3 8/7/3 12/9/3 11/10/3
f 11/10/4 12/9/4 10/11/4 9/12/4
f 9/12/5 10/11/5 6/13/5 5/14/5
f 43/15/6 42/16/6 44/17/6 41/18/6
f 9/12/6 5/14/6 14/19/6 19/20/6
f 19/20/5 14/19/5 22/21/5 24/22/5
f 41/18/6 44/17/6 15/23/6 16/24/6
f 7/8/6 11/10/6 17/25/6 13/26/6
f 37/27/6 40/28/6 18/29/6 25/30/6
f 29/31/7 39/32/7 26/33/7 27/34/7
f 5/5/6 7/8/6 13/26/6 14/35/6
f 11/10/6 9/12/6 19/20/6 17/25/6
f 38/36/7 30/37/7 28/38/7 20/39/7
f 21/40/8 23/41/8 24/22/8 22/42/8
f 17/25/4 19/20/4 24/22/4 23/41/4
f 13/26/3 17/25/3 23/41/3 21/43/3
f 14/35/2 13/26/2 21/43/2 22/44/2
f 40/28/6 29/31/6 27/34/6 18/45/6
f 20/39/4 28/38/4 44/46/4 42/47/4
f 27/34/2 26/33/2 43/15/2 41/18/2
f 34/48/2 32/49/2 30/37/2 38/36/2
f 33/50/8 32/51/8 31/52/8 36/53/8
f 32/49/2 33/54/2 37/55/2 30/37/2
f 30/37/6 37/55/6 25/56/6 28/38/6
f 36/53/4 31/52/4 29/31/4 40/28/4
f 32/51/8 34/48/8 35/57/8 31/52/8
f 43/15/3 35/57/3 34/48/3 42/16/3
f 33/50/5 36/53/5 40/28/5 37/27/5
f 31/52/4 35/57/4 39/32/4 29/31/4
f 39/32/3 35/57/3 43/15/3 26/33/3
f 18/45/2 27/34/2 41/18/2 16/24/2
f 28/38/4 25/56/4 15/58/4 44/46/4
f 42/47/3 34/48/3 38/36/3 20/39/3
f 25/30/3 18/29/3 16/59/3 15/60/3
